<svg width="34" height="49" xmlns="http://www.w3.org/2000/svg">
 <!-- Created with Method Draw - http://github.com/duopixel/Method-Draw/ -->
 <g>
  <title>background</title>
  <rect fill="none" id="canvas_background" height="51" width="36" y="-1" x="-1"/>
  <g display="none" overflow="visible" y="0" x="0" height="100%" width="100%" id="canvasGrid">
   <rect fill="url(#gridpattern)" stroke-width="0" y="0" x="0" height="100%" width="100%"/>
  </g>
 </g>
 <g>
  <title>Layer 1</title>
  <path id="svg_1" d="m11.235427,47.398364c-6.648993,-2.498416 -11.414771,-10.437082 -10.331701,-17.210202c0.682951,-4.270966 15.091503,-30.198711 16.349825,-29.421024c0.4107,0.253825 4.065415,6.29867 8.121589,13.432992c6.497564,11.42843 7.374858,13.559479 7.374858,17.914398c0,8.827242 -7.064591,16.057755 -15.547096,15.912247c-2.475315,-0.042467 -5.16068,-0.325251 -5.967475,-0.628409l0,-0.000002zm6.66154,-4.439778c0.220085,-1.142814 -0.294022,-1.70016 -1.568276,-1.70016c-2.904157,0 -6.932694,-3.678196 -7.832731,-7.151552c-0.960095,-3.705128 -3.505733,-4.145779 -3.881738,-0.671927c-0.724425,6.69287 12.062305,15.860862 13.282744,9.523639l0.000002,0z" stroke-width="1.5" stroke="#000" fill="#191919"/>
 </g>
</svg>