<svg width="78.671" height="142.84" xmlns="http://www.w3.org/2000/svg">
 <metadata>image/svg+xmlOpenclipart</metadata>

 <g>
  <title>background</title>
  <rect x="-1" y="-1" width="80.671" height="144.84" id="canvas_background" fill="none"/>
 </g>
 <g>
  <title>Layer 1</title>
  <g id="layer1">
   <path id="path3996" d="m14.577532,112.00017c0.582778,-8.403865 7.593856,-25.094433 15.161856,-42.305433c8.6923,-18.426 18.691,-26.761 27.686,-39.044c14.134,-19.301 19.944,-30.286 10.648,-25.793c-14.713,-11.899 -26.758,27.624 -39.754,49.693c-8.0404,11.512 -11.072,18.85 -15.618,27.449c-2.0641,3.9855 -1.4704,7.5281 0.23664,10.885c-1.352,3.7118 -10.139,10.522 -4.0228,11.122c3.3965,0.96414 -6.67247,39.743428 -1.125938,35.893295l6.788242,-25.490223l0,-2.409639z" fill="#4c4c4c" fill-rule="evenodd"/>
  </g>
 </g>
</svg>